<svg width="262" height="80" fill="none" xmlns="http://www.w3.org/2000/svg"><path d="M259.348 40c0 3.984-3.376 7.934-9.884 11.632-6.47 3.675-15.864 7.002-27.516 9.802-23.296 5.598-55.505 9.066-91.1 9.066-35.595 0-67.804-3.468-91.1-9.066-11.652-2.8-21.046-6.127-27.515-9.802C5.724 47.934 2.348 43.984 2.348 40s3.376-7.934 9.885-11.632c6.469-3.675 15.863-7.002 27.515-9.802 23.296-5.598 55.505-9.066 91.1-9.066 35.595 0 67.804 3.468 91.1 9.066 11.652 2.8 21.046 6.127 27.516 9.802 6.508 3.698 9.884 7.648 9.884 11.632Z" stroke="#fff"/><path d="M259.035 48.964c-.278 3.974-3.921 7.679-10.672 10.914-6.709 3.215-16.313 5.878-28.132 7.859-23.63 3.96-56.002 5.172-91.51 2.689-35.509-2.483-67.397-8.19-90.246-15.399-11.428-3.606-20.568-7.58-26.765-11.698-6.235-4.143-9.327-8.318-9.049-12.293.278-3.975 3.921-7.679 10.672-10.914 6.71-3.215 16.314-5.878 28.132-7.859 23.63-3.96 56.003-5.172 91.511-2.689 35.508 2.483 67.397 8.19 90.245 15.399 11.429 3.606 20.568 7.58 26.765 11.698 6.235 4.143 9.327 8.318 9.049 12.293Z" stroke="#fff"/></svg>