<svg width="258" height="66" fill="none" xmlns="http://www.w3.org/2000/svg"><path d="M257.035 41.964c-.278 3.974-3.921 7.679-10.672 10.914-6.709 3.215-16.313 5.878-28.132 7.859-23.63 3.96-56.002 5.172-91.51 2.689-35.509-2.483-67.397-8.19-90.246-15.399-11.428-3.606-20.568-7.58-26.765-11.698C3.475 32.186.383 28.011.661 24.036c.278-3.975 3.921-7.679 10.672-10.914 6.71-3.215 16.314-5.878 28.132-7.859 23.63-3.96 56.003-5.172 91.511-2.689 35.508 2.483 67.397 8.19 90.245 15.399 11.429 3.606 20.568 7.58 26.765 11.698 6.235 4.143 9.327 8.318 9.049 12.293Z" stroke="#fff"/></svg>