<svg width="259" height="62" fill="none" xmlns="http://www.w3.org/2000/svg"><path d="M258.348 31c0 3.984-3.376 7.934-9.884 11.632-6.47 3.675-15.864 7.002-27.516 9.802-23.296 5.598-55.505 9.066-91.1 9.066-35.595 0-67.804-3.468-91.1-9.066-11.652-2.8-21.046-6.127-27.515-9.802C4.724 38.934 1.348 34.984 1.348 31c0-3.985 3.376-7.934 9.885-11.632 6.469-3.675 15.863-7.002 27.515-9.802C62.044 3.968 94.253.5 129.848.5c35.595 0 67.804 3.468 91.1 9.066 11.652 2.8 21.046 6.127 27.516 9.802 6.508 3.698 9.884 7.648 9.884 11.632Z" stroke="#fff"/></svg>