<svg width="28" height="28" fill="none" xmlns="http://www.w3.org/2000/svg"><g opacity=".4" clip-path="url(#a)" fill="#fff"><path d="M20.42 0H7.58C3.4 0 0 3.4 0 7.58v12.84C0 24.6 3.4 28 7.58 28h12.84C24.6 28 28 24.6 28 20.42V7.58C28 3.4 24.6 0 20.42 0ZM14 21.656c-4.222 0-7.656-3.434-7.656-7.656 0-4.222 3.434-7.656 7.656-7.656 4.222 0 7.656 3.434 7.656 7.656 0 4.222-3.434 7.656-7.656 7.656Zm7.84-13.507a2.265 2.265 0 0 1-2.263-2.262 2.265 2.265 0 0 1 2.262-2.262 2.265 2.265 0 0 1 2.263 2.262 2.265 2.265 0 0 1-2.263 2.262Z"/><path d="M14 7.985A6.021 6.021 0 0 0 7.985 14 6.021 6.021 0 0 0 14 20.015 6.021 6.021 0 0 0 20.014 14 6.021 6.021 0 0 0 14 7.985ZM21.839 5.266a.622.622 0 1 0 .002 1.244.622.622 0 0 0-.002-1.244Z"/></g><defs><clipPath id="a"><path fill="#fff" d="M0 0h28v28H0z"/></clipPath></defs></svg>