<svg width="153" height="72" fill="none" xmlns="http://www.w3.org/2000/svg"><g clip-path="url(#a)" fill="#fff"><path d="M47.604 58.182c-.523-1.212-.517-2.573-.511-3.892-.173 1.349-.524 2.716-1.345 3.803-.815 1.088-2.795 2.425-4.146 2.24 2.32.857 4.027 3.174 4.158 5.647.38-1.266.845-2.526 1.63-3.59.785-1.058 1.94-1.908 3.248-2.08-1.315.113-2.51-.915-3.034-2.128ZM128.81 29.602c-1.772-.095-3.242-1.295-4.729-2.27-.928-.606-2.183-.73-2.813-1.789-1.083-.208-1.934-.945-2.873-1.414-1.678-.838-3.29-1.837-4.61-3.299-2.058-2.294-4.628-4.047-7.061-5.913-1.142-.88-2.094-2.027-3.468-2.603-.303-.13-.559-.38-.868-.493-.518-.184-.791-.149-.417.505.113.196-.101.57-.148.868-.244 1.473.22 2.383 1.63 3.245.19.112.303.386.499.445.411.119.494.41.268.63-.22.214-.613.244-.934.357-.28-.808-1.219-.44-1.749-1.022-.434-.482-.868-.981-1.142-1.522-.547-1.088-1.79-1.48-2.338-2.526-.72.06-1.445.06-2.153.19-.488.09-.946.363-1.421.541-.15.054-.31.072-.464.107.142.084.285.167.428.256 1.374.88 2.189 2.229 3.022 3.566.089.142.035.422-.042.606-.024.06-.357.077-.482 0-1.35-.844-3.057-.874-4.318-1.944-.762-.647-1.672-1.117-2.415-1.777-1.012-.909-1.922-1.925-2.88-2.9-1.23-1.254-2.527-2.448-3.675-3.78-.595-.683-1.023-1.563-1.345-2.418-.333-.898-.975-1.439-1.665-1.985-.304-.244-.571-.559-.904-.743-.322-.184-.512-.583-1.119-.16-2.01 1.39-3.753 3.024-5.377 4.837-1.63 1.825-3.117 3.81-5.288 5.093-.428.256-.743.702-1.136 1.034-.666.565-1.309 1.16-2.028 1.64-.672.446-1.404.833-2.154 1.13-.886.345-1.778.743-2.801.47-.399-.108-.863.005-1.291.017.285-.38.654-.719.827-1.141.339-.826 1.059-1.194 1.713-1.664 1.98-1.415 3.955-2.829 5.924-4.25.072-.053.113-.148.167-.225-.095-.06-.184-.143-.286-.167-.35-.083-.72-.112-1.058-.225-1.267-.405-2.386-.197-3.462.612-.429.32-1.035.428-1.57.588-1.042.31-2.077.57-2.993 1.23-.803.577-1.826.535-2.766.535-.565 0-.97-.041-1.326.535-.262.416-.797.683-1.243.963-.173.107-.434.083-.655.083-.107 0-.214-.071-.327-.107.066-.119.095-.28.197-.345 1.106-.772 2.14-1.7 3.26-2.389 1.629-1.01 3.217-2.234 5.258-2.484.594-.071 1.153-.47 1.718-.737.06-.03.084-.32.048-.333a17.955 17.955 0 0 0-1.546-.683c-.34-.125-.655-.19-.792.362-.047.197-.583.268-.892.393-1.059.428-2.147.766-3.129 1.396-1.005.642-2.189.826-3.366.987-.44.06-.982.065-1.28.32-1.516 1.296-3.598 1.659-4.996 3.216-.589.654-1.69.963-2.617 1.17-1.636.37-3.07 1.201-4.539 1.896-1.243.589-2.45 1.237-3.789 1.516-1.04.22-1.957.874-3.063.838-.399-.012-.797-.006-1.196-.042-.047-.006-.13-.285-.107-.303 1.202-.772 2.415-1.521 3.617-2.288 1.04-.665 2.355-.778 3.2-1.896.488-.647 1.356-1.081 2.308-1.058.107 0 .286-.202.303-.326.012-.113-.119-.303-.232-.375-.761-.463-1.588-.838-2.284-1.379-.363-.279-.53-.22-.898-.089-1.13.399-2.082 1.088-3.045 1.754-1.357.939-2.778 1.402-4.42.885-.875-.273-1.642-.018-2.498.273-1.255.428-2.427 1.254-3.855 1.094-.464.517-.636-.535-1.124-.196-.363.255-.839.345-1.237.553-.322.166-.37.1-.357-.232.036-.921.63-1.302 1.404-1.563 2.968-.999 5.912-2.05 8.97-2.758.6-.137 1.171-.481 1.7-.82a17.896 17.896 0 0 1 3.564-1.76c1.237-.445 2.207-.397 3.432.31 1.261.725 2.474 1.51 3.527 2.52.458.44 1.357.422 1.75-.048.88-1.046 1.867-1.896 3.259-2.163.107-.024.208-.119.303-.196 1.327-1.094 2.844-1.676 4.569-1.837 1.076-.1 2.046-.665 2.991-1.158 1.119-.589 2.445-.672 3.45-1.546.56-.487 1.261-.154 1.809.149.922.505 1.772 1.147 2.682 1.682.916.535 1.826 1.105 2.808 1.486.666.261 1.261.499 1.69 1.099.148.208.428.446.648.452.315.006.672-.137.945-.31 1.137-.713 2.326-1.402 3.088-2.537.874-1.308 2.189-2.145 3.289-3.21.387-.374.868-.653 1.297-.992.386-.309.797-.6 1.136-.957 1.023-1.081 2.177-.6 3.325-.332.268.641.898.51 1.386.618 1.023.225 1.874.766 2.754 1.29 1.487.89 2.85 1.99 4.598 2.454.571.148 1.196.523 1.677 1.075.774.886 1.886 1.361 2.874 1.98.374.237.904.32 1.171.63.583.683 1.47.826 2.088.689.761-.167 1.386.06 2.064.125.417.041.869.309 1.231.208.601-.167 1.196-.612 1.791-.321 1.1.535 2.213 1.1 3.176 1.83 1.868 1.415 3.653 2.936 5.443 4.451 1.071.91 2.088 1.879 3.117 2.83.375.35.416 1.051 1.041 1.129 1.047.13 2.028.63 3.135.416 1.635-.321 3.283-.577 4.931-.838 1.154-.185 2.314-.404 3.474-.458 1.635-.071 3.182.428 4.086 1.819 1.249 1.925 3.176 3.072 4.747 4.617.119.113.267.202.41.286.541.326.958.742 1.089 1.39-.667-.154-1.386-.202-1.993-.493-.642-.303-1.219-.785-1.743-1.278-.571-.54-1.481-.701-1.766-1.593-.06-.184-.47-.29-.738-.356-1.011-.244-2.112-.25-2.772-1.266-.048-.071-.22-.06-.327-.101-.452-.172-.696.006-.643.476.143 1.176.25 1.349 1.559 2.656.428.428.44.624-.024.826-.523.226-.987.375-1.618-.012-1.041-.636-1.761-1.485-2.332-2.508-.285-.51-.684-.737-1.255-.844-1.088-.208-2.153-.404-3.218.084-.166.077-.363.107-.541.154.137.19.232.47.422.565 3.302 1.676 6.246 3.863 9.06 6.24.172.143.362.255.529.404.089.077.137.196.202.297-.107.042-.22.125-.315.113-.523-.09-1.053-.202-1.737-.339Z"/><path d="M68.215 19.368c-.167-.166-.292-.231-.315-.32-.03-.102-.006-.292.065-.34a30.665 30.665 0 0 0 2.195-1.717c.672-.576 1.624-.82 2.445-1.218.363-.178.809-.297 1.058-.583C74.86 13.847 76.4 13.05 78 12.338c.196-.09.434-.101.654-.12.113-.011.232.043.351.072-.036.125-.053.256-.113.369-.404.772-1.231 1.052-1.856 1.563-.1.083-.154.344-.095.451.066.12.315.25.428.208.898-.326 1.79-.582 2.766-.636.506-.03.994-.433 1.565-.207-.399.309-.833.582-1.196.932-.75.726-1.767.815-2.677 1.1-1.29.398-2.682.475-3.8 1.361-1.31-.012-2.35 1.064-3.742.88-.422-.054-.916.44-1.374.683-.244.119-.482.256-.696.374ZM47.313 24.04c-.238-.167-.56-.292-.56-.416 0-.268.09-.648.286-.779 1.065-.719 2.052-1.58 3.331-1.937 1.112-.315 2.094-.892 3.105-1.439 1.053-.57 2.153-1.052 3.248-1.545.166-.077.41.006.613.012-.012.226.059.505-.048.672-.41.63-.892 1.254-1.612 1.503-1.422.488-2.504 1.528-3.795 2.217-1.142.612-2.237 1.361-3.587 1.498-.333.035-.648.142-.981.214ZM18.386 22.191c-.178-.035-.38-.03-.517-.118-.107-.072-.173-.262-.19-.405-.013-.083.095-.231.178-.261 1.421-.476 2.855-.927 4.277-1.409.755-.255 1.48-.523 2.313-.285.649.184 1.19-.19 1.761-.481.78-.398 1.41.047 1.327.897-.018.184-.31.505-.328.493-.69-.368-1.07.345-1.617.434-.381.066-.792.196-1.148.12-.845-.185-1.53.118-2.302.385-1.19.416-2.475.547-3.718.803a8.617 8.617 0 0 1-.036-.173ZM137.287 36.817c-.256-.19-.72-.428-1.035-.796-.411-.482-.881-.844-1.41-1.195-1.261-.832-1.517-1.165-2.302-2.52-.119-.208-.072-.505-.095-.766.345-.036.707-.143 1.029-.078.244.048.458.304.654.5 1.035 1.022 2.356 1.694 3.355 2.751.363.387.618.88.904 1.337.107.173.161.375.238.565-.262.101-.518.22-.791.297-.101.036-.232-.03-.547-.095ZM17.107 15.88c-.202.22-.291.41-.422.446-1.76.48-3.521.98-5.3 1.39-.643.149-1.338.12-2.005.072-.22-.018-.446-.321-.612-.535-.03-.036.178-.321.327-.428.708-.5 1.41-.927 2.38-.838a2.964 2.964 0 0 0 1.748-.428c.845-.54 1.778-.119 2.641-.422.274-.095.78.452 1.243.743ZM103.375 24.878c-.535-.006-.91-.298-1.195-.809-.845-1.521-2.29-2.514-3.433-3.773-.184-.203-.458-.321-.636-.53a.533.533 0 0 1-.077-.469c.041-.101.28-.202.404-.178.874.16 1.82.243 1.999 1.402.886.511 1.1 1.664 2.207 2.074.654.244 1.07 1.147 1.57 1.777.083.107.095.375.024.476-.072.095-.304.095-.464.1-.113.007-.226-.04-.399-.07ZM90.967 21.4c-.077.043-.22.191-.339.173-.66-.083-1.118-.475-1.51-1.004-.405-.547-.917-1.016-1.321-1.57-.298-.403-.702-.784-.506-1.42.06-.201-.232-.499-.345-.76-.28-.642-.285-1.213-.16-1.135.279.166.517.416.749.653.636.636 1.356 1.213 1.868 1.932.63.885 1.088 1.902 1.612 2.865.023.041-.012.118-.048.267ZM119.846 28.063c.405.297.881.588 1.279.963a36.41 36.41 0 0 1 1.993 2.08c.089.095.095.374.018.475-.072.095-.363.155-.464.09-1.243-.838-2.772-1.344-3.486-2.823-.095-.19-.089-.428-.131-.648.214-.036.435-.078.791-.137ZM142.735 31.058c-.44-.344-.91-.647-1.285-1.04-.137-.142-.166-.57-.047-.725.142-.19.41-.576.773-.041.262.386.797.576 1.16.909.143.13.154.41.226.618a31.36 31.36 0 0 1-.827.28ZM104.16 19.547c.143-.12.304-.333.369-.31.732.286 1.517.512 1.981 1.213.071.107.018.333-.036.476-.024.059-.232.118-.303.083-.595-.31-1.178-.63-1.749-.98-.119-.072-.161-.286-.262-.482ZM131.725 26.506c.172.036.357.042.517.107.405.172.708.511.536.939-.185.458-.809.19-.881.06-.333-.577-.91-.446-1.374-.63-.071-.024-.137-.215-.107-.298.054-.142.185-.374.268-.374.345.03.69.13 1.041.196ZM72.718 23.077c.22.13.357.214.5.297-.18.048-.358.13-.53.119-.149-.012-.297-.13-.446-.202.166-.072.327-.149.476-.214ZM49.198 14.667c-.368.09-.577.167-.79.179-.078.006-.167-.143-.25-.22.148-.119.285-.256.451-.339.048-.024.173.101.59.38ZM14.419 45.286c-.637-2.08-1.273-4.154-1.916-6.234a1.042 1.042 0 0 1-.511-.167c-.5-.327-.613-.933-.417-1.462.066-.172.161-.327.286-.475-.101-.339-.208-.672-.31-1.01-.868.267-1.73.54-2.599.82a193.189 193.189 0 0 0-.726 8.005 184.114 184.114 0 0 0-5.65-5.765c-.857.333-1.72.666-2.576 1.005l.47 1.182.274.054c.309.053.5.345.458.648a.547.547 0 0 1-.292.398c.904 2.264 1.808 4.528 2.707 6.793.66-.262 1.32-.523 1.986-.773-.809-2.116-1.612-4.231-2.42-6.347a200.876 200.876 0 0 1 4.948 5.408c.577-.208 1.154-.41 1.731-.606l.018-.392c-.238-.048-.476-.238-.511-.482a.68.68 0 0 1-.036-.345.767.767 0 0 1 .363-.475c.089-.053.178-.09.267-.113.096-1.836.209-3.679.357-5.52.702 2.162 1.398 4.326 2.1 6.489.666-.22 1.332-.434 1.999-.636ZM28.088 36.77c-.185-.951-.583-1.766-1.208-2.425a5.153 5.153 0 0 0-.416-.392c-.226.32-.636.778-.922.493-.19-.19-.095-.57-.018-.79.03-.09.072-.179.12-.256a4.886 4.886 0 0 0-1.078-.422c-.916-.244-1.897-.25-2.92-.012s-1.898.672-2.623 1.296a4.853 4.853 0 0 0-1.493 2.246 4.47 4.47 0 0 0-.173 1.902c.113-.13.208-.267.297-.41.066-.113.286-.149.328.012.107.44-.25.558-.518.814-.006.006-.018.012-.024.018l-.012.012c.024.124.054.243.09.368.255.94.713 1.718 1.368 2.342a5.067 5.067 0 0 0 2.302 1.271c.88.22 1.796.22 2.748 0 .952-.22 1.773-.618 2.462-1.206.322-.267.595-.57.833-.897a2.304 2.304 0 0 1-.19-.06c-.137-.047-.131-.291.012-.327.148-.035.297-.041.446-.03.155-.267.285-.546.399-.843a5.05 5.05 0 0 0 .19-2.704Zm-2.213 2.198c-.16.535-.446.981-.85 1.338-.405.356-.91.606-1.511.743-.607.142-1.166.142-1.69 0a2.862 2.862 0 0 1-1.356-.827c-.047-.047-.083-.107-.125-.16-.047.03-.09.071-.149.09-.095.035-.19.011-.28-.019-.118-.041-.112-.19-.059-.273.054-.083.12-.16.185-.232a3.836 3.836 0 0 1-.387-.968c-.16-.63-.172-1.219-.024-1.766.149-.54.429-.998.845-1.372.416-.369.94-.63 1.576-.779.63-.149 1.22-.143 1.755.006.535.149.988.44 1.356.862.369.422.619.957.756 1.593.136.641.119 1.23-.042 1.764ZM41.24 35.742a5.518 5.518 0 0 1-.03-.327.144.144 0 0 1-.149-.078c-.184-.338-.13-.73.03-1.093-.131-1.296-.262-2.591-.387-3.893-.232.06-.488.012-.624-.196a.43.43 0 0 1-.054-.119c-.518.054-1.035.107-1.547.166.114.957.22 1.914.328 2.871.095.077.124.196.124.315 0 .065-.03.107-.07.143.094.808.184 1.616.279 2.43.089.773-.024 1.367-.345 1.795-.316.428-.81.684-1.476.767-.678.089-1.225-.03-1.641-.363-.417-.332-.678-.88-.791-1.646-.06-.422-.125-.85-.185-1.272-.184.036-.374.024-.53-.095-.19-.148-.243-.404-.22-.63.037-.356.239-.677.524-.856-.137-.956-.28-1.92-.416-2.876-.732.107-1.458.214-2.183.333.303 1.908.613 3.815.916 5.723.119.73.333 1.343.63 1.848a.78.78 0 0 1 .286.012c.095.024.16.107.143.202-.018.101-.042.19-.072.28.185.213.393.404.619.564.85.588 1.886.796 3.123.636.797-.101 1.493-.345 2.088-.72a3.508 3.508 0 0 0 1.338-1.562c.28-.666.38-1.45.291-2.36ZM55.14 39.117c-.005-2.11-.011-4.22-.023-6.33a.425.425 0 0 1-.446.054c-.096-.041-.113-.142-.084-.238.101-.315.304-.641.524-.927 0-.814-.006-1.628-.006-2.442-.738 0-1.475.012-2.207.024l.125 6.775c-.684-.94-1.38-1.878-2.088-2.806-.19-.041-.38-.142-.416-.356a.416.416 0 0 1 .012-.172c-.845-1.1-1.707-2.187-2.582-3.27-.737.037-1.475.084-2.207.132.078 1.135.149 2.27.226 3.405.107.006.214.018.321.053a.48.48 0 0 1 .316.488c-.018.297-.286.475-.565.517.095 1.456.19 2.918.291 4.374.113-.155.238-.297.428-.38.155-.072.268.107.22.237-.124.351-.38.612-.6.904l.018.261c.69-.047 1.374-.083 2.064-.119-.113-2.234-.226-4.475-.345-6.71a149.497 149.497 0 0 1 4.967 6.55 78.893 78.893 0 0 1 2.058-.024ZM64.349 35.064c-.179.214-.53.267-.607-.077-.042-.184.083-.333.166-.482.096-.166.125-.368.227-.535a.807.807 0 0 1 .309-.29l.154-2.604c1.006.06 2.005.13 3.01.214l.125-1.563c-.261-.024-.523-.036-.785-.06-.012.024-.024.054-.053.072-.209.166-.518.244-.738.047a.447.447 0 0 1-.119-.184 151.791 151.791 0 0 0-6.579-.315c-.012.523-.024 1.046-.042 1.57 1 .023 2 .059 2.998.106l-.32 7.03a.361.361 0 0 1 .142.09c.125.137.095.363-.012.5a.453.453 0 0 1-.16.124c-.006.19-.018.374-.024.565.684.03 1.368.065 2.058.107.09-1.439.172-2.883.262-4.321-.006-.006-.012 0-.012.006ZM79.433 40.27c-.208.09-.333-.244-.124-.333.142-.06.28-.142.416-.22-.16-.796-.333-1.598-.506-2.395-.226.262-.487.488-.82.511a.178.178 0 0 1-.179-.25c.137-.308.291-.641.535-.879.102-.1.197-.154.274-.226a203.597 203.597 0 0 0-.726-3.173c-.273-.072-.511-.22-.559-.511-.047-.274.078-.517.274-.678-.095-.38-.185-.76-.28-1.14-.827-.126-1.66-.239-2.486-.351a211.682 211.682 0 0 0-4.003 7.25c.071-.018.142-.036.214-.03.226.006.262.357.035.35-.178-.005-.345.09-.505.173-.262.5-.524.999-.785 1.504.72.077 1.44.154 2.159.243.321-.63.642-1.253.97-1.883 1.385.172 2.765.368 4.145.582.137.69.268 1.385.399 2.074.714.113 1.428.232 2.141.363a80.647 80.647 0 0 0-.238-1.171 1.971 1.971 0 0 1-.35.19Zm-5.347-3.453c.69-1.313 1.398-2.62 2.118-3.922.333 1.45.654 2.9.957 4.356-1.023-.16-2.052-.303-3.075-.434ZM88.136 32.782c-.714-.16-1.434-.31-2.153-.458l-.375 1.819c.22-.024.398.06.422.35.018.28-.244.547-.422.731a3.74 3.74 0 0 1-.274.256c-.363 1.753-.72 3.506-1.083 5.254.155-.036.31-.042.411.03.065.029.113.088.095.178l-.006.047c-.018.101-.107.149-.202.143a1.066 1.066 0 0 0-.393.06c-.053.267-.113.534-.166.801.672.137 1.344.28 2.01.428l.696-3.155c-.1.035-.226-.006-.232-.143-.012-.297.179-.487.405-.636.422-1.89.844-3.797 1.267-5.705ZM101.157 38.802c.083-.053.172-.107.261-.154.226-.69.447-1.38.673-2.069-.702-.225-1.398-.445-2.1-.665-.666 2.157-1.333 4.314-1.999 6.478-.285-.892-.583-1.783-.88-2.675-.06.042-.137.06-.208 0-.113-.095-.22-.225-.155-.38a.305.305 0 0 1 .178-.155 140.01 140.01 0 0 0-1.677-4.635c-.708-.19-1.416-.38-2.13-.565l-.5 1.938a.175.175 0 0 1 .06-.012c.268-.03.583.178.524.47-.06.297-.41.516-.643.67-.083.06-.178.108-.267.161l-1.202 4.666c.024 0 .054 0 .078.006.208.035.327.273.243.463-.095.232-.327.345-.559.452l-.196.755c.666.172 1.326.344 1.987.529.589-2.164 1.178-4.321 1.772-6.484a149.185 149.185 0 0 1 1.916 5.467.476.476 0 0 1 .243.19c.108.16.06.31-.041.434.184.559.363 1.123.535 1.682.655.202 1.309.41 1.963.618.684-2.098 1.362-4.196 2.046-6.293-.232.077-.44.065-.446-.22-.006-.327.286-.523.524-.672ZM114.403 50.314a.15.15 0 0 1-.107.1c-.273.078-.553.12-.82-.011-.096-.048-.113-.143-.084-.238.03-.089.078-.172.131-.25-.577-.255-1.16-.51-1.743-.76.69-1.61 1.386-3.221 2.076-4.826-.131-.184-.119-.422.036-.642.095-.13.232-.261.392-.35l.804-1.872c-.679-.292-1.357-.577-2.041-.856l-2.718 6.585a.33.33 0 0 1 .059.225c-.023.215-.208.375-.362.506l-.75 1.818c1.707.702 3.402 1.444 5.086 2.217.208-.458.422-.915.63-1.373-.196-.095-.392-.178-.589-.273ZM126.794 54.7a.36.36 0 0 1-.125-.09c-.072-.094-.06-.213.012-.303a.65.65 0 0 1 .184-.148c.137-1.01.268-2.015.387-3.031-.25.036-.5.024-.744-.107-.065-.036-.119-.113-.101-.19.131-.476.541-.826.756-1.26.077-.16.184-.285.309-.398.053-.494.113-.987.16-1.48-.743-.404-1.493-.802-2.242-1.195-.779.648-1.553 1.296-2.32 1.956a.261.261 0 0 1 .036.041c.107.173.006.35-.161.428-.172.083-.363.101-.553.107-1.077.927-2.141 1.86-3.194 2.8.113.142.125.362-.012.498-.179.185-.428.155-.672.12-.357.326-.72.647-1.077.974.654.32 1.309.648 1.963.98.517-.48 1.041-.956 1.57-1.432 1.255.648 2.499 1.314 3.736 1.997-.107.696-.22 1.397-.333 2.092.642.357 1.279.725 1.915 1.094.179-1.153.345-2.3.506-3.453Zm-4.634-2.805a200.882 200.882 0 0 1 3.361-2.948c-.179 1.48-.375 2.954-.583 4.427-.928-.505-1.85-.998-2.778-1.48ZM141.7 58.872l1.243-1.742c-.612-.433-1.225-.867-1.844-1.29-1.284 1.861-2.569 3.721-3.854 5.575a175.423 175.423 0 0 0-.149-5.004c0-.006-.006-.006-.006-.006-.101-.142-.166-.255-.166-.433-.006-.238.113-.369-.042-.589-.166-.238-.315-.356-.291-.683a.923.923 0 0 1 .38-.678 44.944 44.944 0 0 0-.059-.968 165.85 165.85 0 0 0-1.892-1.195c-1.302 2.092-2.605 4.19-3.908 6.282.072 0 .149.006.22.024.22.065.393.32.238.534-.142.197-.47.22-.69.244-.083.012-.178.012-.279.018-.268.428-.536.862-.803 1.29.595.368 1.183.736 1.772 1.117 1.214-1.884 2.421-3.768 3.635-5.658.166 2.77.261 5.527.279 8.26.577.4 1.148.803 1.725 1.207.298-.416.595-.832.893-1.254-.197-.07-.369-.196-.274-.416.113-.255.488-.25.726-.22.85-1.188 1.695-2.377 2.545-3.565-.279.089-.559.136-.844-.042-.066-.042-.119-.107-.101-.19.142-.565.928-.624 1.546-.618ZM152.758 68.28c.03-.131.06-.256.083-.393.131-.867-.005-1.747-.428-2.632-.422-.886-1.112-1.73-2.076-2.508-.101-.084-.208-.167-.309-.25a.19.19 0 0 1-.119.036c-.03-.006-.06 0-.089-.006-.012.06-.06.113-.149.107-.345-.012-.732-.184-.791-.565a.397.397 0 0 1 .137-.386c-.613-.481-1.226-.963-1.844-1.438-1.541 2.008-3.081 4.017-4.628 6.026.054 0 .113 0 .161.006.309.018.791.035.928.368.023.066 0 .149-.06.184-.44.298-1.041.274-1.612.19-.274.357-.541.708-.815 1.064.993.761 1.981 1.54 2.962 2.33.899.725 1.797 1.207 2.707 1.433a5.6 5.6 0 0 0 .856.142.779.779 0 0 1 .524-.428c.398-.113.755.024.969.303.09-.023.179-.047.268-.077.833-.267 1.57-.767 2.219-1.504.398-.451.702-.933.91-1.432-.339 0-.672.018-.999-.142-.09-.042-.119-.149-.084-.238.155-.369.762-.28 1.279-.19Zm-2.801.558c-.655.767-1.41 1.153-2.261 1.171-.85.018-1.719-.339-2.617-1.07a88.975 88.975 0 0 0-1.166-.933c1.327-1.67 2.647-3.346 3.974-5.016.404.321.814.648 1.219.975.94.76 1.487 1.575 1.63 2.43.148.856-.119 1.67-.779 2.443Z"/></g><defs><clipPath id="a"><path fill="#fff" d="M0 0h152.889v72H0z"/></clipPath></defs></svg>