<svg width="153" height="72" viewBox="0 0 153 72" fill="none" xmlns="http://www.w3.org/2000/svg">
<g clip-path="url(#clip0_1_282)">
<path d="M47.6042 58.1824C47.0807 56.9701 47.0867 55.6091 47.0926 54.2897C46.9201 55.6388 46.5692 57.0057 45.7483 58.0933C44.9334 59.1809 42.9526 60.5181 41.6023 60.3338C43.9222 61.1896 45.6293 63.5074 45.7602 65.9797C46.1409 64.7138 46.6048 63.4539 47.39 62.3901C48.1752 61.3323 49.3292 60.4824 50.6378 60.31C49.3232 60.423 48.1276 59.3948 47.6042 58.1824Z" fill="white"/>
<path d="M128.81 29.6023C127.038 29.5072 125.568 28.3067 124.081 27.3321C123.153 26.7259 121.898 26.6011 121.268 25.5432C120.185 25.3352 119.334 24.5983 118.395 24.1288C116.717 23.2908 115.105 22.2924 113.785 20.8304C111.727 18.5364 109.157 16.7832 106.724 14.917C105.582 14.0375 104.63 12.8905 103.256 12.314C102.953 12.1832 102.697 11.9336 102.388 11.8207C101.87 11.6365 101.597 11.6721 101.971 12.3259C102.084 12.522 101.87 12.8964 101.823 13.1936C101.579 14.6674 102.043 15.5767 103.453 16.4385C103.643 16.5514 103.756 16.8248 103.952 16.8842C104.363 17.003 104.446 17.2943 104.22 17.5141C104 17.7281 103.607 17.7578 103.286 17.8707C103.006 17.0625 102.067 17.4309 101.537 16.8485C101.103 16.3671 100.669 15.8679 100.395 15.3271C99.8479 14.2395 98.6047 13.8473 98.0574 12.8013C97.3377 12.8607 96.612 12.8607 95.9042 12.9915C95.4164 13.0806 94.9584 13.354 94.4825 13.5323C94.3338 13.5858 94.1732 13.6036 94.0186 13.6393C94.1613 13.7225 94.3041 13.8057 94.4468 13.8948C95.8209 14.7744 96.6358 16.1235 97.4686 17.4607C97.5578 17.6033 97.5042 17.8826 97.4269 18.0669C97.4031 18.1263 97.07 18.1441 96.9451 18.0669C95.5948 17.2229 93.8877 17.1932 92.6267 16.1235C91.8653 15.4757 90.9552 15.0062 90.2117 14.3465C89.2004 13.4372 88.2904 12.421 87.3327 11.4463C86.1014 10.1923 84.8047 8.99776 83.6566 7.66652C83.0618 6.98307 82.6335 6.1035 82.3123 5.2477C81.9792 4.3503 81.3368 3.80948 80.6468 3.26272C80.3434 3.01906 80.0758 2.70408 79.7427 2.51984C79.4215 2.33561 79.2311 1.93742 78.6244 2.35938C76.6139 3.75005 74.871 5.38439 73.2471 7.19702C71.6173 9.02153 70.1302 11.0065 67.9591 12.2902C67.5308 12.5458 67.2156 12.9915 66.823 13.3243C66.1568 13.8889 65.5144 14.4832 64.7946 14.9646C64.1225 15.4103 63.3908 15.7966 62.6413 16.0938C61.755 16.4385 60.8628 16.8366 59.8397 16.5633C59.4411 16.4563 58.9772 16.5692 58.5489 16.5811C58.8344 16.2007 59.2032 15.862 59.3757 15.44C59.7148 14.6139 60.4345 14.2455 61.0888 13.776C63.0696 12.3615 65.0444 10.9471 67.0133 9.52669C67.0847 9.47321 67.1263 9.37812 67.1799 9.30086C67.0847 9.24143 66.9955 9.15823 66.8944 9.13445C66.5434 9.05125 66.1746 9.02153 65.8356 8.90862C64.5686 8.50449 63.4503 8.7125 62.3737 9.52075C61.9454 9.84168 61.3387 9.94865 60.8033 10.1091C59.7624 10.4182 58.7274 10.6796 57.8113 11.3393C57.0083 11.9158 55.9852 11.8742 55.0454 11.8742C54.4803 11.8742 54.0758 11.8326 53.7189 12.4091C53.4572 12.8251 52.9218 13.0925 52.4757 13.3718C52.3032 13.4788 52.0415 13.455 51.8214 13.455C51.7143 13.455 51.6072 13.3837 51.4942 13.3481C51.5597 13.2292 51.5894 13.0687 51.6905 13.0034C52.7969 12.2308 53.8319 11.3037 54.9502 10.6143C56.58 9.60395 58.1682 8.37969 60.2085 8.13008C60.8033 8.05876 61.3624 7.66058 61.9275 7.39314C61.987 7.36343 62.0108 7.07222 61.9751 7.06033C61.4695 6.81667 60.958 6.573 60.4286 6.37688C60.0895 6.25208 59.7743 6.1867 59.6374 6.73941C59.5899 6.93553 59.0545 7.00684 58.7452 7.13165C57.6864 7.55955 56.5979 7.8983 55.6164 8.52826C54.6111 9.17011 53.4274 9.35435 52.2497 9.51481C51.8095 9.57424 51.2682 9.58018 50.9708 9.83573C49.454 11.1313 47.3721 11.4938 45.9742 13.0509C45.3853 13.7047 44.2849 14.0137 43.357 14.2217C41.7212 14.5902 40.2877 15.4222 38.8184 16.1175C37.5752 16.7059 36.3677 17.3537 35.0294 17.633C33.9884 17.8529 33.0724 18.5066 31.966 18.471C31.5675 18.4591 31.1689 18.465 30.7704 18.4294C30.7228 18.4234 30.6395 18.1441 30.6633 18.1263C31.8649 17.3537 33.0783 16.6049 34.2799 15.8382C35.3208 15.1726 36.6354 15.0597 37.4801 13.9424C37.9678 13.2946 38.8363 12.8607 39.788 12.8845C39.8951 12.8845 40.0735 12.6825 40.0914 12.5576C40.1033 12.4447 39.9724 12.2546 39.8594 12.1832C39.098 11.7197 38.2712 11.3453 37.5752 10.8044C37.2124 10.5251 37.0458 10.5846 36.677 10.7153C35.5469 11.1135 34.5951 11.8029 33.6315 12.4685C32.2753 13.4075 30.8537 13.8711 29.2119 13.354C28.3375 13.0806 27.5702 13.3362 26.7137 13.6274C25.4586 14.0553 24.2868 14.8814 22.8592 14.7209C22.3952 15.238 22.2227 14.186 21.7349 14.5248C21.3721 14.7803 20.8962 14.8695 20.4977 15.0775C20.1765 15.2439 20.1289 15.1785 20.1408 14.8457C20.1765 13.9245 20.7713 13.5442 21.5446 13.2827C24.5128 12.2843 27.4572 11.2323 30.5146 10.5251C31.1154 10.3884 31.6864 10.0437 32.2158 9.70499C33.3401 8.98588 34.5178 8.40346 35.7789 7.94584C37.0161 7.50012 37.9857 7.54766 39.211 8.25488C40.472 8.97993 41.6855 9.76441 42.7383 10.7747C43.1964 11.2145 44.0946 11.1967 44.4871 10.7272C45.3675 9.68121 46.3549 8.83136 47.7468 8.56392C47.8539 8.54015 47.955 8.44506 48.0502 8.3678C49.3766 7.27428 50.8935 6.69186 52.6185 6.5314C53.6951 6.43037 54.6647 5.86578 55.6104 5.37251C56.7287 4.78414 58.0552 4.70094 59.0605 3.82731C59.6196 3.33998 60.3215 3.67279 60.8687 3.97589C61.7907 4.48105 62.6413 5.1229 63.5514 5.65777C64.4674 6.19265 65.3775 6.76318 66.359 7.14353C67.0252 7.40503 67.62 7.64275 68.0483 8.243C68.197 8.451 68.4766 8.68872 68.6967 8.69467C69.0119 8.70061 69.3688 8.55798 69.6425 8.38563C70.7786 7.67246 71.9682 6.98307 72.7296 5.84795C73.604 4.54048 74.9186 3.70251 76.019 2.6387C76.4057 2.26429 76.8875 1.98497 77.3158 1.64622C77.7024 1.33718 78.1128 1.04597 78.4519 0.689385C79.475 -0.392249 80.629 0.0891375 81.777 0.356575C82.0446 0.998424 82.6752 0.867676 83.1629 0.974651C84.186 1.20049 85.0366 1.7413 85.917 2.26429C87.4041 3.15575 88.7662 4.25521 90.515 4.71877C91.086 4.86735 91.7106 5.24176 92.1924 5.79446C92.9657 6.67998 94.078 7.15542 95.0655 7.7735C95.4402 8.01122 95.9696 8.09442 96.2373 8.40346C96.8202 9.08691 97.7065 9.22954 98.3251 9.09285C99.0865 8.92645 99.7111 9.15228 100.389 9.21766C100.806 9.25926 101.258 9.52669 101.62 9.42566C102.221 9.25926 102.816 8.81353 103.411 9.10474C104.511 9.63961 105.624 10.2042 106.587 10.9352C108.455 12.3496 110.24 13.8711 112.03 15.3865C113.101 16.2958 114.118 17.2645 115.147 18.2154C115.522 18.5661 115.563 19.2673 116.188 19.3446C117.235 19.4754 118.216 19.9746 119.323 19.7606C120.958 19.4397 122.606 19.1841 124.254 18.9226C125.408 18.7384 126.568 18.5185 127.728 18.465C129.363 18.3937 130.91 18.8929 131.814 20.2836C133.063 22.2092 134.99 23.3562 136.561 24.9014C136.68 25.0143 136.828 25.1034 136.971 25.1866C137.512 25.5135 137.929 25.9295 138.06 26.5773C137.393 26.4228 136.674 26.3752 136.067 26.084C135.425 25.7809 134.848 25.2995 134.324 24.8063C133.753 24.2654 132.843 24.105 132.558 23.2135C132.498 23.0293 132.088 22.9223 131.82 22.8569C130.809 22.6133 129.708 22.6073 129.048 21.5911C129 21.5198 128.828 21.5316 128.721 21.49C128.269 21.3177 128.025 21.496 128.078 21.9655C128.221 23.1422 128.328 23.3146 129.637 24.622C130.065 25.0499 130.077 25.246 129.613 25.4481C129.09 25.6739 128.626 25.8225 127.995 25.4362C126.954 24.8003 126.234 23.9505 125.663 22.9283C125.378 22.4172 124.979 22.1913 124.408 22.0843C123.32 21.8763 122.255 21.6802 121.19 22.1676C121.024 22.2448 120.827 22.2745 120.649 22.3221C120.786 22.5122 120.881 22.7916 121.071 22.8867C124.373 24.5626 127.317 26.7496 130.131 29.1269C130.303 29.2695 130.493 29.3824 130.66 29.531C130.749 29.6082 130.797 29.7271 130.862 29.8281C130.755 29.8697 130.642 29.9529 130.547 29.9411C130.024 29.8519 129.494 29.739 128.81 29.6023Z" fill="white"/>
<path d="M68.2149 19.3684C68.0483 19.202 67.9234 19.1366 67.8996 19.0475C67.8699 18.9464 67.8937 18.7563 67.9651 18.7087C68.7265 18.1679 69.4521 17.5974 70.16 16.9912C70.8321 16.4147 71.7839 16.171 72.6047 15.7728C72.9676 15.5946 73.4137 15.4757 73.6635 15.1904C74.8591 13.8473 76.3997 13.0509 77.9998 12.3378C78.1961 12.2486 78.4341 12.2367 78.6541 12.2189C78.7672 12.207 78.8861 12.2605 79.0051 12.2902C78.9694 12.415 78.9516 12.5458 78.8921 12.6587C78.4876 13.4313 77.6608 13.7106 77.0362 14.2217C76.9351 14.3049 76.8816 14.5664 76.941 14.6734C77.0065 14.7922 77.2563 14.923 77.3693 14.8814C78.2675 14.5545 79.1598 14.299 80.1353 14.2455C80.6409 14.2158 81.1286 13.8116 81.6997 14.0375C81.3011 14.3465 80.8669 14.6199 80.5041 14.9705C79.7546 15.6956 78.7374 15.7847 77.8273 16.07C76.5366 16.4682 75.1447 16.5454 74.0264 17.431C72.7178 17.4191 71.6768 18.4948 70.2849 18.3105C69.8626 18.257 69.3689 18.7503 68.9108 18.994C68.667 19.1128 68.429 19.2495 68.2149 19.3684Z" fill="white"/>
<path d="M47.3126 24.0396C47.0746 23.8732 46.7534 23.7484 46.7534 23.6236C46.7534 23.3562 46.8427 22.9758 47.039 22.8451C48.1037 22.126 49.0911 21.2642 50.37 20.9076C51.4823 20.5927 52.4638 20.0162 53.475 19.4694C54.5279 18.8989 55.6283 18.4175 56.7228 17.9242C56.8893 17.847 57.1332 17.9302 57.3355 17.9361C57.3236 18.162 57.3949 18.4413 57.2879 18.6077C56.8774 19.2376 56.3956 19.8617 55.6759 20.1113C54.2542 20.5986 53.1716 21.6386 51.8809 22.328C50.7388 22.9402 49.6443 23.689 48.2941 23.8257C47.9609 23.8613 47.6457 23.9683 47.3126 24.0396Z" fill="white"/>
<path d="M18.3861 22.1914C18.2077 22.1557 18.0054 22.1616 17.8686 22.0725C17.7616 22.0012 17.6961 21.811 17.6783 21.6684C17.6664 21.5852 17.7735 21.4366 17.8567 21.4069C19.2784 20.9314 20.7119 20.4798 22.1336 19.9984C22.889 19.7428 23.6147 19.4754 24.4474 19.7131C25.0958 19.8973 25.6371 19.5229 26.2081 19.2317C26.9874 18.8335 27.6179 19.2793 27.5346 20.1291C27.5168 20.3134 27.2253 20.6343 27.2074 20.6224C26.5174 20.2539 26.1368 20.9671 25.5895 21.0562C25.2088 21.1216 24.7984 21.2524 24.4415 21.1751C23.5968 20.9909 22.9128 21.294 22.1395 21.5614C20.9498 21.9774 19.665 22.1082 18.4218 22.3637C18.4099 22.3102 18.398 22.2508 18.3861 22.1914Z" fill="white"/>
<path d="M137.287 36.8172C137.031 36.627 136.567 36.3893 136.252 36.0208C135.841 35.5394 135.371 35.1769 134.842 34.8263C133.581 33.9942 133.325 33.6614 132.54 32.3064C132.421 32.0984 132.468 31.8012 132.445 31.5398C132.79 31.5041 133.152 31.3971 133.474 31.4625C133.718 31.51 133.932 31.7656 134.128 31.9617C135.163 32.9839 136.484 33.6555 137.483 34.7133C137.846 35.0996 138.101 35.5929 138.387 36.0505C138.494 36.2229 138.548 36.4249 138.625 36.6151C138.363 36.7161 138.107 36.835 137.834 36.9123C137.733 36.9479 137.602 36.8826 137.287 36.8172Z" fill="white"/>
<path d="M17.1072 15.8798C16.905 16.0997 16.8157 16.2899 16.6849 16.3255C14.9242 16.8069 13.1635 17.3061 11.3849 17.7162C10.7425 17.8648 10.0466 17.8351 9.38037 17.7875C9.16028 17.7697 8.93425 17.4666 8.7677 17.2526C8.73796 17.217 8.94615 16.9317 9.09485 16.8247C9.8027 16.3255 10.5046 15.8976 11.4742 15.9868C12.0452 16.0403 12.7412 15.8679 13.223 15.5589C14.0676 15.0181 15.0015 15.44 15.864 15.1369C16.1376 15.0418 16.6432 15.5886 17.1072 15.8798Z" fill="white"/>
<path d="M103.375 24.8776C102.84 24.8716 102.465 24.5804 102.18 24.0693C101.335 22.5479 99.8895 21.5554 98.7474 20.2955C98.563 20.0934 98.2894 19.9746 98.1109 19.7665C98.0158 19.6596 97.9801 19.4219 98.0336 19.297C98.0752 19.196 98.3132 19.095 98.4381 19.1188C99.3125 19.2792 100.258 19.3624 100.437 20.5213C101.323 21.0324 101.537 22.1854 102.644 22.5954C103.298 22.8391 103.714 23.7424 104.214 24.3724C104.297 24.4794 104.309 24.7468 104.238 24.8479C104.166 24.9429 103.934 24.9429 103.774 24.9489C103.661 24.9548 103.548 24.9073 103.375 24.8776Z" fill="white"/>
<path d="M90.9671 21.4009C90.8897 21.4425 90.747 21.5911 90.628 21.5733C89.9678 21.4901 89.5097 21.0978 89.1171 20.5689C88.7127 20.0221 88.2011 19.5526 87.7966 18.9999C87.4992 18.5958 87.0947 18.2154 87.291 17.5795C87.3505 17.3775 87.059 17.0803 86.946 16.8188C86.6664 16.177 86.6605 15.6064 86.7854 15.6837C87.065 15.8501 87.3029 16.0997 87.5349 16.3374C88.1714 16.9733 88.8911 17.5498 89.4027 18.2689C90.0332 19.1544 90.4912 20.1707 91.0146 21.1335C91.0384 21.1751 91.0027 21.2523 90.9671 21.4009Z" fill="white"/>
<path d="M119.846 28.063C120.251 28.3602 120.727 28.6514 121.125 29.0258C121.821 29.6855 122.476 30.3927 123.118 31.1059C123.207 31.201 123.213 31.4803 123.136 31.5813C123.064 31.6764 122.773 31.7359 122.672 31.6705C121.429 30.8325 119.9 30.3273 119.186 28.8475C119.091 28.6574 119.097 28.4196 119.055 28.1997C119.269 28.1641 119.49 28.1225 119.846 28.063Z" fill="white"/>
<path d="M142.735 31.0584C142.295 30.7137 141.825 30.4106 141.45 30.0183C141.313 29.8757 141.284 29.4478 141.403 29.2933C141.545 29.1031 141.813 28.7168 142.176 29.2517C142.438 29.638 142.973 29.8282 143.336 30.161C143.479 30.2917 143.49 30.5711 143.562 30.7791C143.324 30.8623 143.086 30.9455 142.735 31.0584Z" fill="white"/>
<path d="M104.16 19.5467C104.303 19.4278 104.464 19.2139 104.529 19.2377C105.261 19.5229 106.046 19.7488 106.51 20.45C106.581 20.557 106.528 20.7828 106.474 20.9255C106.45 20.9849 106.242 21.0443 106.171 21.0087C105.576 20.6996 104.993 20.3787 104.422 20.0281C104.303 19.9568 104.261 19.7428 104.16 19.5467Z" fill="white"/>
<path d="M131.725 26.506C131.897 26.5417 132.082 26.5476 132.242 26.613C132.647 26.7853 132.95 27.1241 132.778 27.552C132.593 28.0096 131.969 27.7422 131.897 27.6114C131.564 27.0349 130.987 27.1657 130.523 26.9814C130.452 26.9577 130.386 26.7675 130.416 26.6843C130.47 26.5417 130.601 26.3099 130.684 26.3099C131.029 26.3396 131.374 26.4406 131.725 26.506Z" fill="white"/>
<path d="M72.7177 23.0769C72.9378 23.2076 73.0746 23.2908 73.2173 23.374C73.0389 23.4216 72.8604 23.5048 72.6879 23.4929C72.5392 23.481 72.3905 23.3621 72.2418 23.2908C72.4084 23.2195 72.569 23.1422 72.7177 23.0769Z" fill="white"/>
<path d="M49.1984 14.6674C48.8296 14.7566 48.6214 14.8339 48.4072 14.8457C48.3299 14.8517 48.2407 14.7031 48.1574 14.6258C48.3061 14.507 48.4429 14.3703 48.6095 14.2871C48.6571 14.2633 48.782 14.3881 49.1984 14.6674Z" fill="white"/>
<path d="M14.4186 45.286C13.7822 43.2059 13.1457 41.1318 12.5033 39.0517C12.3308 39.0458 12.1523 38.9863 11.9917 38.8853C11.4921 38.5584 11.3791 37.9523 11.5754 37.4233C11.6408 37.251 11.736 37.0965 11.8609 36.9479C11.7598 36.6091 11.6527 36.2763 11.5516 35.9376C10.6831 36.205 9.82062 36.4784 8.95217 36.7577C8.65475 39.4321 8.41087 42.1005 8.22648 44.763C6.3944 42.8077 4.5088 40.8881 2.5756 38.9982C1.71905 39.331 0.856546 39.6638 -7.62939e-06 40.0026C0.154648 40.3948 0.315252 40.793 0.469907 41.1853C0.559132 41.2031 0.648356 41.2209 0.743529 41.2388C1.05284 41.2922 1.24318 41.5835 1.20155 41.8866C1.17775 42.0648 1.05879 42.2015 0.910081 42.2847C1.81422 44.549 2.71836 46.8133 3.61655 49.0776C4.27681 48.8161 4.93707 48.5546 5.60328 48.305C4.79431 46.1893 3.99129 44.0736 3.18233 41.9579C4.87164 43.7348 6.51932 45.5415 8.1313 47.366C8.70829 47.158 9.28527 46.956 9.86226 46.7598C9.86821 46.6291 9.87415 46.4984 9.8801 46.3676C9.64217 46.3201 9.40424 46.1299 9.36855 45.8862C9.32691 45.7852 9.31501 45.6485 9.33286 45.5415C9.38044 45.3454 9.51726 45.1671 9.6957 45.0661C9.78493 45.0126 9.87415 44.9769 9.96338 44.9532C10.0585 43.1168 10.1716 41.2744 10.3203 39.4321C11.0222 41.5953 11.7181 43.7586 12.42 45.9219C13.0862 45.702 13.7524 45.488 14.4186 45.286Z" fill="white"/>
<path d="M28.0878 36.7696C27.9034 35.8187 27.5049 35.0045 26.8803 34.3449C26.7494 34.2022 26.6067 34.0774 26.4639 33.9526C26.2379 34.2735 25.8275 34.7311 25.5419 34.4459C25.3516 34.2557 25.4468 33.8754 25.5241 33.6555C25.5538 33.5663 25.5955 33.4772 25.6431 33.3999C25.31 33.2216 24.9531 33.079 24.5664 32.978C23.6504 32.7343 22.6689 32.7283 21.6458 32.9661C20.6227 33.2038 19.7483 33.6376 19.0226 34.2617C18.3029 34.8857 17.8032 35.6345 17.5296 36.5081C17.3333 37.1262 17.2798 37.7621 17.3571 38.4099C17.4701 38.2791 17.5653 38.1425 17.6545 37.9998C17.7199 37.8869 17.94 37.8512 17.9817 38.0117C18.0887 38.4515 17.7318 38.5704 17.4642 38.8259C17.4582 38.8319 17.4463 38.8378 17.4404 38.8437C17.4344 38.8497 17.4344 38.8497 17.4285 38.8556C17.4523 38.9804 17.482 39.0993 17.5177 39.2241C17.7735 40.1631 18.2315 40.9416 18.8858 41.5657C19.5401 42.1956 20.3074 42.6116 21.1878 42.8375C22.0681 43.0574 22.9842 43.0574 23.9359 42.8375C24.8876 42.6176 25.7085 42.2194 26.3985 41.631C26.7197 41.3636 26.9933 41.0605 27.2313 40.7336C27.1658 40.7158 27.1063 40.698 27.0409 40.6742C26.9041 40.6267 26.91 40.383 27.0528 40.3473C27.2015 40.3117 27.3502 40.3057 27.4989 40.3176C27.6536 40.0502 27.7844 39.7708 27.8975 39.4737C28.2008 38.6238 28.2722 37.7264 28.0878 36.7696ZM25.875 38.9685C25.7144 39.5034 25.4289 39.9491 25.0244 40.3057C24.62 40.6623 24.1143 40.9119 23.5136 41.0486C22.9068 41.1912 22.3477 41.1912 21.8243 41.0486C21.3008 40.906 20.8547 40.6326 20.468 40.2225C20.4205 40.175 20.3848 40.1155 20.3431 40.0621C20.2955 40.0918 20.2539 40.1334 20.1944 40.1512C20.0993 40.1869 20.0041 40.1631 19.9149 40.1334C19.7959 40.0918 19.8018 39.9432 19.8554 39.86C19.9089 39.7768 19.9743 39.6995 20.0398 39.6282C19.8792 39.343 19.7424 39.022 19.6531 38.6595C19.4925 38.0295 19.4806 37.4412 19.6293 36.8944C19.778 36.3536 20.0576 35.896 20.474 35.5216C20.8904 35.1531 21.4138 34.8916 22.0503 34.743C22.6808 34.5945 23.2697 34.6004 23.805 34.749C24.3404 34.8976 24.7925 35.1888 25.1612 35.6107C25.53 36.0327 25.7799 36.5675 25.9167 37.2035C26.0535 37.8453 26.0356 38.4337 25.875 38.9685Z" fill="white"/>
<path d="M41.2394 35.7415C41.2275 35.6345 41.2156 35.5275 41.2097 35.4146C41.1562 35.4205 41.0967 35.4027 41.061 35.3373C40.8766 34.9986 40.9301 34.6063 41.0907 34.2438C40.9599 32.9482 40.829 31.6526 40.7041 30.3511C40.4721 30.4106 40.2163 30.363 40.0795 30.155C40.0557 30.1193 40.0379 30.0777 40.026 30.0361C39.5085 30.0896 38.991 30.1431 38.4794 30.2025C38.5925 31.1594 38.6995 32.1162 38.8066 33.073C38.9018 33.1503 38.9315 33.2692 38.9315 33.388C38.9315 33.4534 38.9018 33.495 38.8601 33.5307C38.9553 34.3389 39.0445 35.1472 39.1397 35.9614C39.2289 36.734 39.1159 37.3283 38.7947 37.7562C38.4794 38.1841 37.9857 38.4396 37.3195 38.5228C36.6414 38.612 36.0942 38.4931 35.6778 38.1603C35.2614 37.8275 34.9997 37.2807 34.8867 36.5141C34.8272 36.0921 34.7618 35.6642 34.7023 35.2422C34.5179 35.2779 34.3275 35.266 34.1729 35.1472C33.9825 34.9986 33.929 34.743 33.9528 34.5172C33.9885 34.1606 34.1907 33.8397 34.4762 33.6614C34.3394 32.7046 34.1967 31.7418 34.0599 30.785C33.3282 30.8919 32.6025 30.9989 31.8768 31.1178C32.1802 33.0255 32.4895 34.9332 32.7929 36.8409C32.9118 37.5719 33.126 38.1841 33.4234 38.6892C33.5126 38.6773 33.6078 38.6773 33.7089 38.7011C33.8041 38.7249 33.8695 38.8081 33.8517 38.9032C33.8338 39.0042 33.81 39.0933 33.7803 39.1825C33.9647 39.3964 34.1729 39.5866 34.3989 39.7471C35.2495 40.3354 36.2845 40.5434 37.5218 40.383C38.3188 40.282 39.0148 40.0383 39.6096 39.6639C40.2044 39.2835 40.6506 38.7665 40.948 38.1009C41.2275 37.4352 41.3287 36.6508 41.2394 35.7415Z" fill="white"/>
<path d="M55.1406 39.1171C55.1346 37.0073 55.1287 34.8975 55.1168 32.7878C54.9919 32.8769 54.8432 32.9185 54.6707 32.8412C54.5755 32.7996 54.5576 32.6986 54.5874 32.6035C54.6885 32.2885 54.8908 31.9617 55.1108 31.6764C55.1108 30.8622 55.1049 30.048 55.1049 29.2338C54.3673 29.2338 53.6297 29.2457 52.8981 29.2576C52.9397 31.5159 52.9814 33.7743 53.023 36.0327C52.3389 35.0937 51.643 34.1547 50.9351 33.2275C50.7448 33.1859 50.5545 33.0849 50.5188 32.871C50.5069 32.8115 50.5188 32.7521 50.5307 32.6986C49.686 31.5991 48.8235 30.5116 47.9491 29.4299C47.2115 29.4656 46.4739 29.5131 45.7423 29.5607C45.8196 30.6958 45.891 31.8309 45.9683 32.966C46.0754 32.972 46.1825 32.9839 46.2895 33.0195C46.4918 33.0849 46.6167 33.2929 46.6048 33.5069C46.5869 33.804 46.3193 33.9823 46.0397 34.0239C46.1349 35.48 46.23 36.9419 46.3312 38.398C46.4442 38.2435 46.5691 38.1008 46.7594 38.0176C46.9141 37.9463 47.0271 38.1246 46.9795 38.2554C46.8546 38.606 46.5988 38.8675 46.3788 39.1587C46.3847 39.2478 46.3906 39.331 46.3966 39.4202C47.0866 39.3726 47.7707 39.337 48.4607 39.3013C48.3476 37.0667 48.2346 34.8262 48.1157 32.5916C49.8466 34.749 51.5002 36.9301 53.0825 39.1409C53.7665 39.123 54.4565 39.1171 55.1406 39.1171Z" fill="white"/>
<path d="M64.3487 35.0639C64.1702 35.2779 63.8193 35.3314 63.7419 34.9867C63.7003 34.8025 63.8252 34.6539 63.9085 34.5053C64.0037 34.3389 64.0334 34.1368 64.1345 33.9704C64.2118 33.8397 64.3189 33.7505 64.4438 33.6792L64.5985 31.0762C65.6037 31.1356 66.6031 31.2069 67.6083 31.2901C67.65 30.7671 67.6916 30.2501 67.7332 29.7271C67.4715 29.7033 67.2098 29.6914 66.9481 29.6677C66.9362 29.6914 66.9243 29.7212 66.8945 29.739C66.6863 29.9054 66.377 29.9826 66.1569 29.7865C66.0975 29.733 66.0618 29.6677 66.038 29.6023C63.849 29.4478 61.6541 29.3467 59.4592 29.2873C59.4473 29.8103 59.4354 30.3333 59.4175 30.8563C60.4168 30.88 61.4162 30.9157 62.4155 30.9632C62.3084 33.3048 62.2013 35.6523 62.0943 37.9939C62.1478 38.0117 62.1954 38.0414 62.237 38.083C62.3619 38.2197 62.3322 38.4455 62.2251 38.5822C62.1775 38.6417 62.124 38.6773 62.0645 38.707C62.0586 38.8972 62.0467 39.0814 62.0407 39.2716C62.7248 39.3013 63.4088 39.337 64.0988 39.3786C64.1881 37.9404 64.2713 36.4962 64.3606 35.058C64.3546 35.0521 64.3487 35.058 64.3487 35.0639Z" fill="white"/>
<path d="M79.4335 40.2701C79.2253 40.3592 79.1004 40.0264 79.3086 39.9372C79.4513 39.8778 79.5881 39.7946 79.7249 39.7174C79.5643 38.921 79.3918 38.1187 79.2193 37.3223C78.9933 37.5838 78.7316 37.8096 78.3985 37.8334C78.2617 37.8453 78.1665 37.7086 78.22 37.5838C78.3568 37.2748 78.5115 36.9419 78.7554 36.7042C78.8565 36.6032 78.9517 36.5497 79.029 36.4784C78.797 35.4205 78.5531 34.3627 78.3033 33.3048C78.0297 33.2335 77.7917 33.0849 77.7442 32.7937C77.6966 32.5203 77.8215 32.2767 78.0178 32.1162C77.9226 31.7358 77.8334 31.3555 77.7382 30.9751C76.9114 30.8503 76.0786 30.7374 75.2518 30.6245C73.8659 33.0255 72.5275 35.4443 71.2486 37.875C71.32 37.8572 71.3914 37.8393 71.4628 37.8453C71.6888 37.8512 71.7245 38.2019 71.4984 38.1959C71.32 38.19 71.1534 38.2851 70.9928 38.3683C70.7311 38.8675 70.4694 39.3667 70.2077 39.8719C70.9274 39.9491 71.6472 40.0264 72.3669 40.1155C72.6881 39.4856 73.0093 38.8616 73.3365 38.2316C74.7224 38.4039 76.1024 38.6001 77.4824 38.814C77.6192 39.5034 77.7501 40.1987 77.881 40.8881C78.5948 41.0011 79.3086 41.1199 80.0223 41.2507C79.945 40.8584 79.8677 40.4721 79.7844 40.0799C79.6833 40.1512 79.5584 40.2166 79.4335 40.2701ZM74.086 36.8171C74.776 35.5037 75.4838 34.1963 76.2035 32.8947C76.5367 34.3448 76.8579 35.7949 77.1612 37.251C76.1381 37.0905 75.1091 36.9479 74.086 36.8171Z" fill="white"/>
<path d="M88.1357 32.7818C87.422 32.6213 86.7022 32.4728 85.9825 32.3242C85.8576 32.9304 85.7326 33.5366 85.6077 34.1428C85.8278 34.119 86.0063 34.2022 86.0301 34.4934C86.0479 34.7727 85.7862 35.0402 85.6077 35.2244C85.5245 35.3135 85.4293 35.3968 85.3341 35.48C84.9713 37.2332 84.6144 38.9864 84.2515 40.7336C84.4062 40.6979 84.5608 40.692 84.662 40.7633C84.7274 40.793 84.775 40.8525 84.7571 40.9416L84.7512 40.9892C84.7333 41.0902 84.6441 41.1377 84.5489 41.1318C84.4062 41.1258 84.2813 41.1496 84.1563 41.1912C84.1028 41.4587 84.0433 41.7261 83.9898 41.9935C84.6619 42.1302 85.3341 42.2729 86.0003 42.4214C86.2323 41.3695 86.4643 40.3176 86.6963 39.2657C86.5951 39.3013 86.4702 39.2597 86.4643 39.123C86.4524 38.8259 86.6427 38.6357 86.8688 38.4871C87.2911 36.5972 87.7134 34.6895 88.1357 32.7818Z" fill="white"/>
<path d="M101.157 38.8021C101.24 38.7486 101.329 38.6952 101.418 38.6476C101.644 37.9582 101.865 37.2688 102.091 36.5794C101.389 36.3536 100.693 36.1337 99.9908 35.9138C99.3246 38.0711 98.6584 40.2285 97.9922 42.3917C97.7067 41.5003 97.4093 40.6088 97.1119 39.7174C97.0524 39.759 96.9751 39.7768 96.9037 39.7174C96.7907 39.6223 96.6836 39.4915 96.749 39.337C96.7847 39.2597 96.8501 39.2122 96.9275 39.1825C96.3981 37.6373 95.8389 36.0862 95.2501 34.5469C94.5422 34.3567 93.8344 34.1666 93.1206 33.9823L92.6209 35.9198C92.6388 35.9138 92.6566 35.9079 92.6804 35.9079C92.9481 35.8782 93.2633 36.0862 93.2038 36.3774C93.1444 36.6745 92.7934 36.8944 92.5614 37.0489C92.4781 37.1084 92.383 37.1559 92.2938 37.2094L91.0922 41.8747C91.116 41.8747 91.1457 41.8747 91.1695 41.8806C91.3777 41.9163 91.4967 42.154 91.4134 42.3442C91.3182 42.576 91.0863 42.6889 90.8543 42.7959L90.658 43.5506C91.3242 43.723 91.9844 43.8953 92.6447 44.0796C93.2336 41.9163 93.8225 39.759 94.4173 37.5957C95.0954 39.4143 95.7319 41.2388 96.3326 43.0633C96.4278 43.099 96.517 43.1584 96.5765 43.2535C96.6836 43.4139 96.636 43.5625 96.5349 43.6873C96.7193 44.246 96.8977 44.8105 97.0702 45.3692C97.7245 45.5713 98.3789 45.7793 99.0332 45.9873C99.7172 43.8894 100.395 41.7915 101.079 39.6936C100.847 39.7708 100.639 39.759 100.633 39.4737C100.627 39.1468 100.919 38.9507 101.157 38.8021Z" fill="white"/>
<path d="M114.403 50.3138C114.392 50.3554 114.356 50.397 114.296 50.4148C114.023 50.4921 113.743 50.5337 113.476 50.403C113.38 50.3554 113.363 50.2603 113.392 50.1652C113.422 50.0761 113.47 49.9929 113.523 49.9156C112.946 49.6601 112.363 49.4045 111.78 49.1549C112.47 47.5443 113.166 45.9338 113.856 44.3292C113.725 44.1449 113.737 43.9072 113.892 43.6873C113.987 43.5566 114.124 43.4258 114.284 43.3367C114.552 42.7127 114.82 42.0886 115.088 41.4646C114.409 41.1734 113.731 40.8881 113.047 40.6088L110.329 47.1937C110.371 47.2591 110.4 47.3363 110.388 47.4195C110.365 47.6335 110.18 47.794 110.026 47.9247L109.276 49.7433C110.983 50.4446 112.678 51.1874 114.362 51.96C114.57 51.5024 114.784 51.0448 114.992 50.5872C114.796 50.4921 114.6 50.4089 114.403 50.3138Z" fill="white"/>
<path d="M126.794 54.6998C126.746 54.676 126.704 54.6522 126.669 54.6106C126.597 54.5155 126.609 54.3967 126.681 54.3075C126.728 54.2481 126.794 54.2005 126.865 54.1589C127.002 53.1486 127.133 52.1442 127.252 51.128C127.002 51.1636 126.752 51.1518 126.508 51.021C126.443 50.9854 126.389 50.9081 126.407 50.8308C126.538 50.3554 126.948 50.0048 127.163 49.5709C127.24 49.4104 127.347 49.2856 127.472 49.1727C127.525 48.6795 127.585 48.1862 127.632 47.6929C126.889 47.2888 126.139 46.8906 125.39 46.4984C124.611 47.1461 123.837 47.7939 123.07 48.4536C123.082 48.4655 123.094 48.4774 123.106 48.4952C123.213 48.6676 123.112 48.8459 122.945 48.9231C122.773 49.0063 122.582 49.0241 122.392 49.0301C121.315 49.9572 120.251 50.8903 119.198 51.8293C119.311 51.9719 119.323 52.1918 119.186 52.3285C119.007 52.5127 118.758 52.483 118.514 52.4473C118.157 52.7742 117.794 53.0951 117.437 53.422C118.091 53.7429 118.746 54.0698 119.4 54.4026C119.917 53.9212 120.441 53.4458 120.97 52.9703C122.225 53.6181 123.469 54.2837 124.706 54.9672C124.599 55.6625 124.486 56.3638 124.373 57.0591C125.015 57.4157 125.652 57.7842 126.288 58.1527C126.467 56.9997 126.633 55.8527 126.794 54.6998ZM122.16 51.8946C123.266 50.9022 124.385 49.9215 125.521 48.9469C125.342 50.4267 125.146 51.9006 124.938 53.3745C124.01 52.8693 123.088 52.376 122.16 51.8946Z" fill="white"/>
<path d="M141.7 58.8718C142.117 58.2894 142.527 57.7129 142.943 57.1305C142.331 56.6966 141.718 56.2628 141.099 55.8408C139.815 57.701 138.53 59.5612 137.245 61.4154C137.221 59.7514 137.168 58.0873 137.096 56.4114C137.096 56.4054 137.09 56.4054 137.09 56.4054C136.989 56.2628 136.924 56.1499 136.924 55.9716C136.918 55.7339 137.037 55.6031 136.882 55.3832C136.716 55.1455 136.567 55.0266 136.591 54.6998C136.614 54.4086 136.763 54.1768 136.971 54.0223C136.954 53.7013 136.936 53.3745 136.912 53.0535C136.281 52.6494 135.651 52.2512 135.02 51.859C133.718 53.951 132.415 56.0488 131.112 58.1408C131.184 58.1408 131.261 58.1467 131.332 58.1646C131.552 58.2299 131.725 58.4855 131.57 58.6994C131.428 58.8956 131.1 58.9193 130.88 58.9431C130.797 58.955 130.702 58.955 130.601 58.9609C130.333 59.3888 130.065 59.8227 129.798 60.2506C130.393 60.619 130.981 60.9875 131.57 61.3679C132.784 59.4839 133.991 57.6 135.205 55.7101C135.371 58.4795 135.466 61.2371 135.484 63.9709C136.061 64.3691 136.632 64.7732 137.209 65.1774C137.507 64.7613 137.804 64.3453 138.102 63.9234C137.905 63.8521 137.733 63.7273 137.828 63.5074C137.941 63.2518 138.316 63.2578 138.554 63.2875C139.404 62.0989 140.249 60.9103 141.099 59.7216C140.82 59.8108 140.54 59.8583 140.255 59.68C140.189 59.6384 140.136 59.5731 140.154 59.4899C140.296 58.9253 141.082 58.8658 141.7 58.8718Z" fill="white"/>
<path d="M152.758 68.2796C152.788 68.1489 152.818 68.0241 152.841 67.8874C152.972 67.0197 152.836 66.1401 152.413 65.2546C151.991 64.3691 151.301 63.5252 150.337 62.7467C150.236 62.6635 150.129 62.5803 150.028 62.4971C149.998 62.5208 149.957 62.5327 149.909 62.5327C149.879 62.5268 149.849 62.5327 149.82 62.5268C149.808 62.5862 149.76 62.6397 149.671 62.6337C149.326 62.6219 148.939 62.4495 148.88 62.0692C148.85 61.8968 148.916 61.772 149.017 61.6829C148.404 61.2015 147.791 60.7201 147.173 60.2446C145.632 62.2534 144.092 64.2621 142.545 66.2709C142.599 66.2709 142.658 66.2709 142.706 66.2768C143.015 66.2947 143.497 66.3125 143.634 66.6453C143.657 66.7107 143.634 66.7939 143.574 66.8295C143.134 67.1267 142.533 67.1029 141.962 67.0197C141.688 67.3763 141.421 67.7269 141.147 68.0835C142.14 68.8442 143.128 69.6228 144.109 70.4132C145.008 71.1382 145.906 71.6196 146.816 71.8455C147.107 71.9168 147.393 71.9643 147.672 71.9881C147.756 71.792 147.94 71.6315 148.196 71.5602C148.594 71.4473 148.951 71.584 149.165 71.8633C149.255 71.8395 149.344 71.8157 149.433 71.786C150.266 71.5186 151.003 71.0194 151.652 70.2824C152.05 69.8308 152.354 69.3494 152.562 68.8502C152.223 68.8502 151.89 68.868 151.563 68.7075C151.473 68.6659 151.444 68.559 151.479 68.4698C151.634 68.1013 152.241 68.1905 152.758 68.2796ZM149.957 68.8383C149.302 69.6049 148.547 69.9912 147.696 70.0091C146.846 70.0269 145.977 69.6703 145.079 68.9393C144.692 68.6243 144.306 68.3153 143.913 68.0062C145.24 66.3363 146.56 64.6603 147.887 62.9903C148.291 63.3112 148.701 63.6381 149.106 63.965C150.046 64.7257 150.593 65.5399 150.736 66.3957C150.884 67.2515 150.617 68.0657 149.957 68.8383Z" fill="white"/>
</g>
<defs>
<clipPath id="clip0_1_282">
<rect width="152.889" height="72" fill="white"/>
</clipPath>
</defs>
</svg>
