<svg width="32" height="32" fill="none" xmlns="http://www.w3.org/2000/svg"><path d="M30.366 8.502a3.758 3.758 0 0 0-2.644-2.645c-2.347-.642-11.738-.642-11.738-.642s-9.39 0-11.738.618a3.835 3.835 0 0 0-2.644 2.669c-.618 2.347-.618 7.215-.618 7.215s0 4.893.618 7.216a3.759 3.759 0 0 0 2.644 2.644c2.373.643 11.738.643 11.738.643s9.39 0 11.738-.618a3.759 3.759 0 0 0 2.645-2.644c.617-2.348.617-7.216.617-7.216s.025-4.893-.618-7.24ZM12.994 20.215V11.22l7.809 4.497-7.809 4.498Z" fill="#fff" opacity=".4"/></svg>